<svg xmlns="http://www.w3.org/2000/svg" xmlns:xlink="http://www.w3.org/1999/xlink" width="72" height="72" viewBox="0 0 72 72">
  <defs>
    <filter id="Path_131" x="0" y="0" width="72" height="72" filterUnits="userSpaceOnUse">
      <feOffset dy="3" input="SourceAlpha"/>
      <feGaussianBlur stdDeviation="5" result="blur"/>
      <feFlood flood-opacity="0.102"/>
      <feComposite operator="in" in2="blur"/>
      <feComposite in="SourceGraphic"/>
    </filter>
  </defs>
  <g id="sns_youtube" transform="translate(-1736.265 -20.333)">
    <g transform="matrix(1, 0, 0, 1, 1736.27, 20.33)" filter="url(#Path_131)">
      <g id="Path_131-2" data-name="Path 131" transform="translate(15 12)" fill="#fff">
        <path d="M 21 41.5 C 18.2322998046875 41.5 15.54765033721924 40.95804977416992 13.0206298828125 39.88920974731445 C 10.57956027984619 38.85673141479492 8.387160301208496 37.3785285949707 6.504310131072998 35.49568939208984 C 4.621469974517822 33.61283874511719 3.143270015716553 31.42044067382812 2.110790014266968 28.9793701171875 C 1.041949987411499 26.45235061645508 0.5 23.7677001953125 0.5 21 C 0.5 18.2322998046875 1.041949987411499 15.54765033721924 2.110790014266968 13.0206298828125 C 3.143270015716553 10.57956027984619 4.621469974517822 8.387160301208496 6.504310131072998 6.504310131072998 C 8.387160301208496 4.621469974517822 10.57956027984619 3.143270015716553 13.0206298828125 2.110790014266968 C 15.54765033721924 1.041949987411499 18.2322998046875 0.5 21 0.5 C 23.7677001953125 0.5 26.45235061645508 1.041949987411499 28.9793701171875 2.110790014266968 C 31.42044067382812 3.143270015716553 33.61283874511719 4.621469974517822 35.49568939208984 6.504310131072998 C 37.3785285949707 8.387160301208496 38.85673141479492 10.57956027984619 39.88920974731445 13.0206298828125 C 40.95804977416992 15.54765033721924 41.5 18.2322998046875 41.5 21 C 41.5 23.7677001953125 40.95804977416992 26.45235061645508 39.88920974731445 28.9793701171875 C 38.85673141479492 31.42044067382812 37.3785285949707 33.61283874511719 35.49568939208984 35.49568939208984 C 33.61283874511719 37.3785285949707 31.42044067382812 38.85673141479492 28.9793701171875 39.88920974731445 C 26.45235061645508 40.95804977416992 23.7677001953125 41.5 21 41.5 Z" stroke="none"/>
        <path d="M 21 1 C 18.29957962036133 1 15.68045997619629 1.528659820556641 13.21540069580078 2.5712890625 C 10.83394050598145 3.578559875488281 8.694950103759766 5.020778656005859 6.857860565185547 6.857860565185547 C 5.020778656005859 8.694950103759766 3.578559875488281 10.83394050598145 2.5712890625 13.21540069580078 C 1.528659820556641 15.68045997619629 1 18.29957962036133 1 21 C 1 23.70042037963867 1.528659820556641 26.31954002380371 2.5712890625 28.78459930419922 C 3.578559875488281 31.16606140136719 5.020778656005859 33.30504989624023 6.857860565185547 35.14213943481445 C 8.694950103759766 36.97922134399414 10.83394050598145 38.42144012451172 13.21540069580078 39.4287109375 C 15.68045997619629 40.47134017944336 18.29957962036133 41 21 41 C 23.70042037963867 41 26.31954002380371 40.47134017944336 28.78459930419922 39.4287109375 C 31.16606140136719 38.42144012451172 33.30504989624023 36.97922134399414 35.14213943481445 35.14213943481445 C 36.97922134399414 33.30504989624023 38.42144012451172 31.16606140136719 39.4287109375 28.78459930419922 C 40.47134017944336 26.31954002380371 41 23.70042037963867 41 21 C 41 18.29957962036133 40.47134017944336 15.68045997619629 39.4287109375 13.21540069580078 C 38.42144012451172 10.83394050598145 36.97922134399414 8.694950103759766 35.14213943481445 6.857860565185547 C 33.30504989624023 5.020778656005859 31.16606140136719 3.578559875488281 28.78459930419922 2.5712890625 C 26.31954002380371 1.528659820556641 23.70042037963867 1 21 1 M 21 0 C 32.59798049926758 0 42 9.402019500732422 42 21 C 42 32.59798049926758 32.59798049926758 42 21 42 C 9.402019500732422 42 0 32.59798049926758 0 21 C 0 9.402019500732422 9.402019500732422 0 21 0 Z" stroke="none" fill="#fff"/>
      </g>
    </g>
    <path id="youtube" d="M20.632,6.691a2.507,2.507,0,0,0-1.768-1.772C17.3,4.5,11.05,4.5,11.05,4.5s-6.254,0-7.814.419A2.507,2.507,0,0,0,1.468,6.691a26.131,26.131,0,0,0-.418,4.824,26.131,26.131,0,0,0,.418,4.824,2.47,2.47,0,0,0,1.768,1.743c1.56.419,7.814.419,7.814.419s6.254,0,7.814-.419a2.47,2.47,0,0,0,1.768-1.743,26.131,26.131,0,0,0,.418-4.824A26.131,26.131,0,0,0,20.632,6.691ZM9,14.475V8.554l5.227,2.961L9,14.475Z" transform="translate(1761.215 41.833)" fill="#d31045"/>
  </g>
</svg>
